<svg width="400" height="400" xmlns="http://www.w3.org/2000/svg">
 <!-- Created with Method Draw - http://github.com/duopixel/Method-Draw/ -->
 <g>
  <title>Layer 1</title>
  <ellipse ry="34.999999" rx="40.5" id="svg_30" cy="349.000003" cx="199.999999" stroke-opacity="null" stroke-width="0" stroke="#000" fill="#FABA6F"/>
  <rect id="svg_5" height="187" width="239" y="167" x="84.5" stroke-opacity="null" stroke-width="0" stroke="#000" fill="#f9eae1"/>
  <path id="svg_8" d="m173.382507,39.464985l0,0c0,-12.978693 11.864197,-23.499983 26.5,-23.499983l0,0c7.028412,0 13.76886,2.47587 18.738647,6.882992c4.96933,4.407089 7.761353,10.384398 7.761353,16.616991l0,0c0,12.978683 -11.864532,23.500011 -26.5,23.500011l0,0c-14.635803,0 -26.5,-10.521328 -26.5,-23.500011zm13.25,0l0,0c0,6.489315 5.932373,11.75 13.25,11.75c7.317627,0 13.25,-5.260685 13.25,-11.75c0,-6.489338 -5.932373,-11.750013 -13.25,-11.750013l0,0c-7.317627,0 -13.25,5.260675 -13.25,11.750013z" stroke-opacity="null" stroke-width="0" stroke="#000" fill="#f9eae1"/>
  <ellipse ry="130" rx="119" id="svg_9" cy="176" cx="203.5" stroke-opacity="null" stroke-width="0" stroke="#000" fill="#f9eae1"/>
  <ellipse ry="1" rx="7" id="svg_31" cy="254" cx="310.5" stroke-opacity="null" stroke-width="0" stroke="#000" fill="#f9eae1"/>
 </g>
</svg>
